<?xml version="1.0" encoding="utf-8"?>
<!-- Generator: Adobe Illustrator 16.0.5, SVG Export Plug-In . SVG Version: 6.00 Build 0)  -->
<!DOCTYPE svg PUBLIC "-//W3C//DTD SVG 1.1//EN" "http://www.w3.org/Graphics/SVG/1.1/DTD/svg11.dtd">
<svg version="1.1" id="Layer_1" xmlns="http://www.w3.org/2000/svg" xmlns:xlink="http://www.w3.org/1999/xlink" x="0px" y="0px"
	 width="16px" height="16px" viewBox="0 0 16 16" enable-background="new 0 0 16 16" xml:space="preserve">
<g id="Layer_1_1_" display="none">
	
		<text transform="matrix(1 0 0 1 0.4824 14.8799)" display="inline" fill="#808080" font-family="'LiberationSerif-BoldItalic'" font-size="12.8825">ms</text>
</g>
<text transform="matrix(1 0 0 1 -15.4805 1.5)" font-family="'CambriaMath'" font-size="12">xí µí±¥</text>
<g>
	<path fill="#808080" stroke="#808080" stroke-width="0.25" stroke-miterlimit="10" d="M3.968,11.719
		c-0.067-0.358-0.138-0.701-0.21-1.032c-0.072-0.331-0.147-0.637-0.223-0.923c-0.077-0.284-0.141-0.471-0.19-0.561
		c-0.051-0.087-0.104-0.147-0.16-0.183c-0.057-0.033-0.128-0.05-0.214-0.05c-0.095,0-0.181,0.021-0.258,0.064
		c-0.077,0.042-0.16,0.117-0.25,0.224c-0.091,0.106-0.21,0.272-0.36,0.498l-0.44-0.291c0.285-0.43,0.559-0.751,0.821-0.964
		C2.745,8.29,3.055,8.184,3.412,8.184c0.141,0,0.264,0.016,0.37,0.047s0.2,0.081,0.281,0.146C4.145,8.442,4.217,8.527,4.28,8.631
		c0.063,0.104,0.125,0.245,0.183,0.425c0.059,0.178,0.114,0.4,0.166,0.665c0.053,0.264,0.099,0.538,0.14,0.824h0.068
		C5.271,9.934,5.6,9.487,5.824,9.203c0.224-0.281,0.412-0.492,0.566-0.63c0.153-0.138,0.302-0.235,0.444-0.292
		c0.142-0.056,0.331-0.084,0.566-0.084c0.212,0,0.387,0.027,0.521,0.082l-0.27,1.227H7.177C7.15,9.316,7.07,9.222,6.939,9.222
		c-0.041,0-0.084,0.007-0.129,0.02C6.766,9.255,6.71,9.284,6.645,9.33C6.579,9.376,6.482,9.463,6.356,9.594
		c-0.127,0.132-0.27,0.293-0.428,0.481c-0.158,0.19-0.321,0.39-0.488,0.599l-0.461,0.575c0.081,0.435,0.158,0.81,0.231,1.127
		c0.072,0.316,0.136,0.58,0.193,0.789c0.056,0.211,0.106,0.378,0.148,0.498c0.043,0.123,0.09,0.215,0.14,0.276
		s0.101,0.103,0.153,0.128c0.052,0.025,0.112,0.037,0.179,0.037c0.123,0,0.241-0.047,0.356-0.142
		c0.115-0.096,0.281-0.311,0.499-0.645l0.44,0.292c-0.316,0.471-0.602,0.802-0.857,0.994c-0.256,0.191-0.56,0.287-0.913,0.287
		c-0.194,0-0.359-0.034-0.495-0.104c-0.135-0.07-0.253-0.182-0.353-0.336c-0.099-0.154-0.187-0.394-0.264-0.719
		c-0.141-0.578-0.226-1.022-0.258-1.33H4.111c-0.479,0.675-0.835,1.158-1.068,1.452c-0.233,0.294-0.425,0.511-0.577,0.65
		c-0.151,0.141-0.298,0.239-0.44,0.296c-0.143,0.057-0.332,0.085-0.567,0.085c-0.212,0-0.386-0.027-0.522-0.082l0.271-1.229h0.475
		c0.027,0.19,0.106,0.286,0.237,0.286c0.063,0,0.13-0.018,0.2-0.051c0.07-0.034,0.171-0.116,0.302-0.245
		c0.131-0.129,0.312-0.33,0.542-0.606C3.195,12.683,3.53,12.27,3.968,11.719z"/>
</g>
</svg>
