<?xml version="1.0" encoding="utf-8"?>
<!-- Generator: Adobe Illustrator 16.0.5, SVG Export Plug-In . SVG Version: 6.00 Build 0)  -->
<!DOCTYPE svg PUBLIC "-//W3C//DTD SVG 1.1//EN" "http://www.w3.org/Graphics/SVG/1.1/DTD/svg11.dtd">
<svg version="1.1" id="Layer_1" xmlns="http://www.w3.org/2000/svg" xmlns:xlink="http://www.w3.org/1999/xlink" x="0px" y="0px"
	 width="16px" height="16px" viewBox="0 0 16 16" enable-background="new 0 0 16 16" xml:space="preserve">
<g>
	<path fill="#DEDEDE" d="M-14.591,13h-9.012v-0.946l5.966-8.135h-4.786v1.495h-0.92V3h8.685v0.947l-5.898,8.133h5.048v-1.398h0.918
		V13z M-15.565,3.81h-0.987l-6.146,8.38h1.057L-15.565,3.81z"/>
</g>
<g>
	<path fill="#A8A8A8" d="M3.422,6.011l-1.09,5.595h1.019l-0.12,0.623H1.146l1.078-5.595h-1.03l0.132-0.623H3.422z M3.77,3.95
		c0,0.056-0.004,0.1-0.012,0.132c-0.04,0.192-0.132,0.348-0.275,0.467c-0.16,0.128-0.332,0.192-0.516,0.192
		c-0.184,0-0.327-0.064-0.431-0.192c-0.08-0.088-0.12-0.2-0.12-0.335c0-0.056,0.004-0.1,0.012-0.132
		c0.04-0.191,0.136-0.347,0.288-0.467c0.152-0.136,0.319-0.204,0.503-0.204c0.175,0,0.319,0.068,0.431,0.204
		C3.729,3.703,3.77,3.814,3.77,3.95z"/>
	<path fill="#A8A8A8" d="M10.527,11.605l-0.12,0.623H8.371L9.077,8.61c0.088-0.399,0.124-0.735,0.107-1.006
		c0-0.248-0.027-0.431-0.084-0.551C8.974,6.781,8.67,6.638,8.191,6.622c-0.496,0-0.911,0.184-1.246,0.551
		C6.601,7.548,6.366,8.079,6.238,8.766l-0.671,3.462H4.489l1.09-5.595h-1.03l0.12-0.623h2.108L6.562,7.113
		C6.841,6.682,7.161,6.366,7.52,6.167c0.359-0.216,0.75-0.324,1.174-0.324c0.687,0,1.154,0.196,1.402,0.587
		c0.151,0.232,0.228,0.551,0.228,0.958c0,0.272-0.036,0.567-0.107,0.887l-0.647,3.331H10.527z"/>
	<path fill="#A8A8A8" d="M15.415,6.011l-0.12,0.623h-2.024l-0.767,3.954c-0.057,0.287-0.084,0.531-0.084,0.73
		c0,0.127,0.012,0.219,0.036,0.275c0.071,0.151,0.247,0.228,0.526,0.228c0.28,0,0.499-0.084,0.659-0.252
		c0.16-0.167,0.279-0.435,0.359-0.802h0.814c-0.144,0.566-0.379,0.978-0.706,1.233c-0.328,0.264-0.771,0.396-1.33,0.396
		c-0.631,0-1.047-0.136-1.246-0.408c-0.128-0.167-0.188-0.41-0.18-0.73c0-0.191,0.023-0.415,0.071-0.67l0.768-3.954h-0.947
		l0.12-0.623h0.946l0.372-1.929h1.09L13.39,6.011H15.415z"/>
</g>
</svg>
