<?xml version="1.0" encoding="utf-8"?>
<!-- Generator: Adobe Illustrator 16.0.5, SVG Export Plug-In . SVG Version: 6.00 Build 0)  -->
<!DOCTYPE svg PUBLIC "-//W3C//DTD SVG 1.1//EN" "http://www.w3.org/Graphics/SVG/1.1/DTD/svg11.dtd">
<svg version="1.1" id="Layer_1" xmlns="http://www.w3.org/2000/svg" xmlns:xlink="http://www.w3.org/1999/xlink" x="0px" y="0px"
	 width="16px" height="16px" viewBox="0 0 16 16" enable-background="new 0 0 16 16" xml:space="preserve">
<g opacity="0.5">
	<path d="M7.57324,12.94629c0,1.41309-1.1499,2.76367-2.56689,3.01367s-2.56592-0.69434-2.56592-2.1084
		s1.14893-2.76367,2.56592-3.01367C6.42334,10.58691,7.57324,11.53125,7.57324,12.94629z"/>
	<path d="M15.59668,10.3457c0,1.41309-1.14844,2.76367-2.56543,3.01367c-1.41797,0.25-2.56738-0.69336-2.56738-2.1084
		s1.14941-2.7627,2.56738-3.01465C14.44824,7.98584,15.59668,8.93164,15.59668,10.3457z"/>
	<path d="M15.59668,3.72705c0,0.07178-0.07715,0.14404-0.17578,0.16113L6.52441,5.45703
		C6.42725,5.47412,6.34717,5.4292,6.34717,5.35791V3.58398c0-0.07178,0.08008-0.14404,0.17725-0.16113L15.4209,1.854
		c0.09863-0.01807,0.17578,0.02686,0.17578,0.09814V3.72705z"/>
	<path d="M14.37402,10.69141c0,0.10156,0.08105,0.16797,0.18164,0.14941l0.86133-0.15137
		c0.10059-0.01855,0.18164-0.1123,0.18164-0.21484V2.20508c0-0.1001-0.08105-0.16699-0.18164-0.14893l-0.86328,0.15088
		c-0.09961,0.01807-0.18164,0.11426-0.18164,0.21484v8.26953H14.37402z"/>
	<path d="M6.34717,13.18555c0,0.11035,0.08301,0.18555,0.18213,0.16797l0.86084-0.15137
		c0.10107-0.01855,0.18213-0.12109,0.18213-0.23145V5.07617c0-0.11035-0.08203-0.18506-0.18213-0.16699L6.5293,5.06104
		C6.4292,5.0791,6.34717,5.18213,6.34717,5.29102V13.18555z"/>
	<polygon points="14.98535,6.06494 7.11719,7.45215 7.11719,6.38379 14.98535,4.99707 	"/>
</g>
<g>
	<path fill="#8F8F8F" d="M6.12891,12.23926c0,1.41309-1.1499,2.76367-2.56689,3.01367s-2.56592-0.69434-2.56592-2.1084
		s1.14893-2.76367,2.56592-3.01367C4.979,9.87988,6.12891,10.82422,6.12891,12.23926z"/>
	<path fill="#8F8F8F" d="M14.15234,9.63867c0,1.41309-1.14844,2.76367-2.56543,3.01367
		c-1.41797,0.25-2.56738-0.69336-2.56738-2.1084s1.14941-2.7627,2.56738-3.01416
		C13.00391,7.27881,14.15234,8.22412,14.15234,9.63867z"/>
	<path fill="#8F8F8F" d="M14.15234,3.02002c0,0.07178-0.07715,0.14404-0.17578,0.16113L5.08008,4.75
		C4.98291,4.76709,4.90283,4.72217,4.90283,4.65088V2.87695c0-0.07178,0.08008-0.14404,0.17725-0.16113l8.89648-1.56885
		c0.09863-0.01807,0.17578,0.02686,0.17578,0.09814V3.02002z"/>
	<path fill="#8F8F8F" d="M12.92969,9.98438c0,0.10156,0.08105,0.16797,0.18164,0.14941l0.86133-0.15137
		c0.10059-0.01855,0.18164-0.1123,0.18164-0.21484V1.49805c0-0.1001-0.08105-0.16699-0.18164-0.14893L13.10938,1.5
		c-0.09961,0.01807-0.18164,0.11426-0.18164,0.21484v8.26953H12.92969z"/>
	<path fill="#8F8F8F" d="M4.90283,12.47852c0,0.11035,0.08301,0.18555,0.18213,0.16797l0.86084-0.15137
		c0.10107-0.01855,0.18213-0.12109,0.18213-0.23145V4.36914c0-0.11035-0.08203-0.18506-0.18213-0.16699L5.08496,4.354
		C4.98486,4.37207,4.90283,4.4751,4.90283,4.58398V12.47852z"/>
	<polygon fill="#8F8F8F" points="13.54102,5.35791 5.67285,6.74512 5.67285,5.67676 13.54102,4.29004 	"/>
</g>
</svg>
