<?xml version="1.0" encoding="utf-8"?>
<!-- Generator: Adobe Illustrator 16.0.5, SVG Export Plug-In . SVG Version: 6.00 Build 0)  -->
<!DOCTYPE svg PUBLIC "-//W3C//DTD SVG 1.1//EN" "http://www.w3.org/Graphics/SVG/1.1/DTD/svg11.dtd">
<svg version="1.1" id="Layer_1" xmlns="http://www.w3.org/2000/svg" xmlns:xlink="http://www.w3.org/1999/xlink" x="0px" y="0px"
	 width="16px" height="16px" viewBox="0 0 16 16" enable-background="new 0 0 16 16" xml:space="preserve">
<g>
	<path fill="#BABABA" d="M6.541,10.233l-2.16,2.161c-0.299,0.297-0.713,0.365-0.926,0.15l0,0c-0.214-0.214-0.146-0.628,0.151-0.925
		l2.16-2.16L6.541,10.233z"/>
	<path fill="#BABABA" d="M5.691,7.029l5.07-5.072c0.299-0.298,0.78-0.297,1.078,0l0,0c0.299,0.298,0.299,0.78,0.001,1.078
		L6.769,8.106v0.001l0,0c-0.312,0.31-0.31,0.813,0,1.124l0,0c0.311,0.311,0.813,0.311,1.124,0l0,0l0,0l5.072-5.071
		c0.299-0.298,0.78-0.298,1.079,0l0,0c0.297,0.298,0.298,0.78-0.001,1.078l-5.071,5.073l0,0c-0.907,0.905-2.375,0.905-3.281-0.001
		C4.784,9.404,4.784,7.936,5.691,7.029L5.691,7.029z"/>
	<path fill="#BABABA" d="M3.916,13.893c-0.5,0.498-1.308,0.5-1.81,0l0,0c-0.498-0.499-0.498-1.309,0.002-1.81l0,0
		c0.499-0.498,1.308-0.498,1.808,0.002l0,0C4.415,12.584,4.414,13.394,3.916,13.893L3.916,13.893z"/>
</g>
<g opacity="0.35">
	<path fill="#BFBFBF" d="M12.11,12.11c-1.134,1.133-2.622,1.701-4.11,1.701l0.001,1.344c1.83,0,3.661-0.699,5.057-2.096
		c1.398-1.397,2.097-3.229,2.097-5.06H13.81C13.813,9.489,13.243,10.978,12.11,12.11z"/>
	<path fill="#BFBFBF" d="M3.89,3.89C5.022,2.756,6.512,2.188,8,2.188V0.845c-1.831,0-3.662,0.699-5.06,2.096
		C1.544,4.338,0.845,6.169,0.846,8h1.343C2.189,6.512,2.757,5.021,3.89,3.89z"/>
	<path fill="#BFBFBF" d="M10.63,10.632c-0.724,0.725-1.677,1.086-2.629,1.086L8,12.648c1.191,0,2.383-0.453,3.289-1.359
		c0.905-0.907,1.359-2.098,1.359-3.289h-0.931C11.718,8.953,11.356,9.906,10.63,10.632z"/>
	<path fill="#BFBFBF" d="M5.368,5.368C6.095,4.644,7.047,4.28,8,4.28V3.352c-1.191,0-2.382,0.453-3.288,1.36
		C3.805,5.617,3.353,6.809,3.352,8H4.28C4.281,7.047,4.644,6.094,5.368,5.368z"/>
	<path fill="#BFBFBF" d="M6.316,6.316C6.78,5.853,7.391,5.619,8,5.619V5.025c-0.762,0-1.524,0.289-2.104,0.87
		c-0.581,0.579-0.87,1.342-0.87,2.104L5.619,8C5.619,7.391,5.853,6.779,6.316,6.316z"/>
	<path fill="#BFBFBF" d="M9.683,9.684c-0.464,0.464-1.073,0.695-1.682,0.697v0.593c0.762,0.001,1.524-0.289,2.104-0.869
		s0.87-1.342,0.87-2.104H10.38C10.378,8.609,10.147,9.219,9.683,9.684z"/>
</g>
</svg>
