<?xml version="1.0" encoding="utf-8"?>
<!-- Generator: Adobe Illustrator 16.0.5, SVG Export Plug-In . SVG Version: 6.00 Build 0)  -->
<!DOCTYPE svg PUBLIC "-//W3C//DTD SVG 1.1//EN" "http://www.w3.org/Graphics/SVG/1.1/DTD/svg11.dtd">
<svg version="1.1" id="Layer_1" xmlns="http://www.w3.org/2000/svg" xmlns:xlink="http://www.w3.org/1999/xlink" x="0px" y="0px"
	 width="16px" height="16px" viewBox="0 0 16 16" enable-background="new 0 0 16 16" xml:space="preserve">
<g>
	<g opacity="0.3">
		<linearGradient id="SVGID_1_" gradientUnits="userSpaceOnUse" x1="0.72266" y1="8.64941" x2="15.27734" y2="8.64941">
			<stop  offset="0" style="stop-color:#999999"/>
			<stop  offset="0.05914" style="stop-color:#757575"/>
			<stop  offset="1" style="stop-color:#000000"/>
		</linearGradient>
		<rect x="0.72266" y="4.9458" fill="url(#SVGID_1_)" width="14.55469" height="7.40771"/>
	</g>
	<g>
		
			<linearGradient id="SVGID_2_" gradientUnits="userSpaceOnUse" x1="302.89844" y1="-374.83398" x2="309.34338" y2="-385.27573" gradientTransform="matrix(1 0 0 -1 -298 -371)">
			<stop  offset="0" style="stop-color:#999999"/>
			<stop  offset="0.05914" style="stop-color:#757575"/>
			<stop  offset="1" style="stop-color:#000000"/>
		</linearGradient>
		<rect x="0.28125" y="4.44189" fill="url(#SVGID_2_)" width="14.55469" height="7.40771"/>
	</g>
	<g>
		
			<linearGradient id="SVGID_3_" gradientUnits="userSpaceOnUse" x1="308.02832" y1="-383.14307" x2="302.0477" y2="-373.45963" gradientTransform="matrix(1 0 0 -1 -298 -371)">
			<stop  offset="0" style="stop-color:#999999"/>
			<stop  offset="0.05914" style="stop-color:#757575"/>
			<stop  offset="1" style="stop-color:#000000"/>
		</linearGradient>
		<rect x="0.64502" y="4.81201" fill="url(#SVGID_3_)" width="13.82666" height="6.6665"/>
	</g>
</g>
<circle opacity="0.5" fill="none" stroke="#78B2FF" stroke-width="0.43195" stroke-miterlimit="10" cx="2.32617" cy="8.14502" r="2.32617"/>
<g opacity="0.5">
	<g>
		<path fill="none" stroke="#000000" stroke-width="0.96792" stroke-miterlimit="10" d="M1.35938,11.56055
			c0.09717-0.10938,0.0625-0.29102,0.06592-0.4375C1.44092,10.51172,1.66016,9.94336,1.75,9.33398
			c0.21436-1.44922,0.34277-2.93848,0.5791-4.34961c0.23682-0.59521,0.56738-1.56104,1.2832-1.38184
			C4.14844,3.73682,4.5752,4.70459,4.62549,5.18408c0.16895,1.61865,1.33301,6.29443,1.32031,7.2915
			c0.07422,0.21484,0.2666,0.86523,0.55713,0.875c0.28369,0.01172,0.38672-0.45117,0.45264-0.67773
			c0.16553-0.56641,0.25977-1.62012,0.36523-2.2041c0.10059-0.55859,0.04834-1.18848,0.17773-1.74121
			c0.05273-0.22363,0.23242-1.27686,0.37744-1.4585C8.10596,7.40576,8.11572,8.99121,8.15674,9.2627
			C8.19434,9.50488,8.2168,10.39844,8.49902,10.5c0.37598,0.13867,0.33398-1.86816,0.8252-1.56445
			c0.17383,0.10352,0.2832,1.23828,0.45605,1.36914c0.21094,0.16016,0.46094,0.20508,0.69629,0.08398
			c0.16504-0.08594,0.31543-0.35938,0.49121-0.39648c0.27246-0.05859,0.17969,0.24414,0.34668,0.37305
			c0.27441,0.21875,0.88672-0.47461,1.07031-0.68359c0.41992-0.48242,0.72363-1.14355,1.38672-1.16504
			c0.2334-0.00781,0.53711,0.47461,0.75879,0.56836c0.27051,0.1123,0.4502,0.2832,0.74512,0.16309
			c0.22656-0.09277,0.58301-0.47461,0.38477-0.76855"/>
	</g>
</g>
<g>
	<g>
		<linearGradient id="SVGID_4_" gradientUnits="userSpaceOnUse" x1="0.55127" y1="7.99121" x2="15.75684" y2="7.99121">
			<stop  offset="0" style="stop-color:#5E94DB"/>
			<stop  offset="0.12172" style="stop-color:#689BDD"/>
			<stop  offset="0.33164" style="stop-color:#84ADE4"/>
			<stop  offset="0.60454" style="stop-color:#B2CCEE"/>
			<stop  offset="0.92664" style="stop-color:#F0F5FC"/>
			<stop  offset="1" style="stop-color:#FFFFFF"/>
		</linearGradient>
		<path fill="none" stroke="url(#SVGID_4_)" stroke-width="0.96792" stroke-miterlimit="10" d="M0.91309,11.08398
			c0.09717-0.10938,0.84717-5.02295,1.0752-6.35498C2.2251,4.13379,2.4502,2.94678,3.16699,3.12598
			c0.53564,0.13428,0.9624,1.10205,1.01172,1.58154c0.16943,1.61865,1.0415,6.47314,1.3208,7.2915
			c0.07422,0.21484,0.26709,0.86523,0.55762,0.875c0.2832,0.01172,0.38623-0.45117,0.45264-0.67773
			c0.16504-0.56641,0.25977-1.62012,0.36475-2.2041C6.9751,9.43359,6.92285,8.80371,7.05273,8.25098
			C7.10547,8.02734,7.28516,6.97363,7.4292,6.79199c0.23096,0.1377,0.24072,1.72266,0.28174,1.99414
			c0.03711,0.24219,0.05908,1.13574,0.3418,1.2373c0.37695,0.13867,0.33398-1.86816,0.8252-1.56445
			C9.05176,8.5625,9.16211,9.69727,9.33398,9.82813c0.21094,0.16016,0.45996,0.20508,0.69727,0.08398
			c0.16504-0.08594,0.31543-0.35938,0.49023-0.39648c0.27246-0.05859,0.17969,0.24414,0.34863,0.37305
			c0.27441,0.21875,0.88574-0.47461,1.06836-0.68359c0.41895-0.48242,0.72559-1.14355,1.38574-1.16553
			c0.23535-0.00732,0.53906,0.4751,0.76074,0.56885c0.26953,0.1123,0.4502,0.2832,0.74316,0.16309
			c0.22754-0.09277,0.58594-0.4751,0.38672-0.76855"/>
	</g>
</g>
</svg>
