<?xml version="1.0" encoding="utf-8"?>
<!-- Generator: Adobe Illustrator 16.0.5, SVG Export Plug-In . SVG Version: 6.00 Build 0)  -->
<!DOCTYPE svg PUBLIC "-//W3C//DTD SVG 1.1//EN" "http://www.w3.org/Graphics/SVG/1.1/DTD/svg11.dtd">
<svg version="1.1" id="Layer_1" xmlns="http://www.w3.org/2000/svg" xmlns:xlink="http://www.w3.org/1999/xlink" x="0px" y="0px"
	 width="16px" height="16px" viewBox="0 0 16 16" enable-background="new 0 0 16 16" xml:space="preserve">
<g>
	<path fill="#FFBA4D" d="M6.129,12.239c0,1.414-1.15,2.764-2.567,3.014s-2.566-0.694-2.566-2.108c0-1.415,1.149-2.764,2.566-3.014
		C4.979,9.88,6.129,10.824,6.129,12.239z"/>
	<path fill="#FFBA4D" d="M14.153,9.639c0,1.413-1.149,2.763-2.566,3.014c-1.418,0.25-2.567-0.694-2.567-2.109
		s1.149-2.763,2.567-3.014C13.004,7.279,14.153,8.224,14.153,9.639z"/>
	<path fill="#FFBA4D" d="M14.153,3.02c0,0.072-0.078,0.144-0.176,0.161L5.08,4.75C4.983,4.767,4.903,4.722,4.903,4.651V2.877
		c0-0.072,0.08-0.144,0.177-0.161l8.897-1.569c0.098-0.018,0.176,0.027,0.176,0.098V3.02z"/>
	<path fill="#FFBA4D" d="M12.929,9.984c0,0.102,0.082,0.169,0.182,0.15l0.861-0.152c0.101-0.018,0.182-0.112,0.182-0.214V1.498
		c0-0.1-0.081-0.167-0.182-0.149L13.11,1.5c-0.1,0.018-0.182,0.114-0.182,0.215V9.984z"/>
	<path fill="#FFBA4D" d="M4.903,12.479c0,0.11,0.083,0.185,0.182,0.167l0.861-0.151c0.101-0.018,0.182-0.121,0.182-0.231V4.369
		c0-0.11-0.082-0.185-0.182-0.167L5.085,4.354c-0.1,0.018-0.182,0.121-0.182,0.23V12.479z"/>
	<polygon fill="#FFBA4D" points="13.541,5.358 5.673,6.745 5.673,5.677 13.541,4.29 	"/>
</g>
</svg>
