<?xml version="1.0" encoding="utf-8"?>
<!-- Generator: Adobe Illustrator 16.0.5, SVG Export Plug-In . SVG Version: 6.00 Build 0)  -->
<!DOCTYPE svg PUBLIC "-//W3C//DTD SVG 1.1//EN" "http://www.w3.org/Graphics/SVG/1.1/DTD/svg11.dtd">
<svg version="1.1" xmlns="http://www.w3.org/2000/svg" xmlns:xlink="http://www.w3.org/1999/xlink" x="0px" y="0px" width="16px"
	 height="16px" viewBox="0 0 16 16" enable-background="new 0 0 16 16" xml:space="preserve">
<g id="Layer_1" display="none">
	
		<text transform="matrix(1 0 0 1 0.4829 14.8799)" display="inline" fill="#808080" font-family="'LiberationSerif-BoldItalic'" font-size="12.8825">ms</text>
</g>
<g id="Layer_2">
	<g>
		<path fill="#808080" d="M8.157,10.319c0-0.406-0.151-0.61-0.453-0.61c-0.147,0-0.32,0.084-0.519,0.252s-0.377,0.382-0.535,0.642
			s-0.257,0.505-0.299,0.736L5.729,14.88h-1.68l0.642-3.579c0.092-0.486,0.139-0.813,0.139-0.981c0-0.406-0.155-0.61-0.466-0.61
			c-0.201,0-0.43,0.14-0.686,0.419c-0.256,0.278-0.459,0.617-0.61,1.016L2.401,14.88H0.728l0.931-5.341l-0.56-0.156l0.082-0.416
			h2.063l-0.019,1.057c0.302-0.41,0.623-0.716,0.962-0.915C4.527,8.909,4.907,8.81,5.327,8.81c0.373,0,0.666,0.11,0.877,0.331
			c0.211,0.22,0.319,0.524,0.324,0.915c0.591-0.831,1.3-1.246,2.126-1.246c0.369,0,0.663,0.117,0.88,0.349
			c0.219,0.233,0.328,0.56,0.328,0.979c0,0.155-0.037,0.433-0.107,0.831l-0.598,3.346l0.73,0.151L9.806,14.88H7.377l0.642-3.579
			C8.111,10.814,8.157,10.487,8.157,10.319z"/>
		<path fill="#808080" d="M14.862,13.012c0,0.638-0.214,1.129-0.642,1.475c-0.428,0.347-1.067,0.52-1.919,0.52
			c-0.323,0-0.67-0.037-1.041-0.11s-0.646-0.149-0.827-0.229l0.289-1.642h0.416l0.094,0.83c0.269,0.378,0.64,0.566,1.113,0.566
			c0.344,0,0.619-0.092,0.824-0.273c0.205-0.183,0.309-0.41,0.309-0.683c0-0.164-0.056-0.313-0.167-0.45
			c-0.111-0.136-0.284-0.271-0.519-0.405l-0.416-0.239c-0.465-0.26-0.794-0.531-0.987-0.814c-0.192-0.283-0.289-0.601-0.289-0.953
			c0-1.195,0.79-1.793,2.371-1.793c0.495,0,1.045,0.067,1.648,0.202l-0.271,1.516h-0.415l-0.082-0.692
			c-0.088-0.108-0.218-0.208-0.39-0.299C13.791,9.446,13.598,9.4,13.384,9.4c-0.318,0-0.553,0.072-0.701,0.215
			c-0.149,0.143-0.224,0.329-0.224,0.56c0,0.163,0.063,0.316,0.186,0.459c0.124,0.143,0.396,0.331,0.814,0.566
			c0.398,0.223,0.685,0.414,0.859,0.575c0.174,0.162,0.308,0.341,0.402,0.538C14.814,12.511,14.862,12.743,14.862,13.012z"/>
	</g>
</g>
</svg>
