<?xml version="1.0" encoding="utf-8"?>
<!-- Generator: Adobe Illustrator 16.0.5, SVG Export Plug-In . SVG Version: 6.00 Build 0)  -->
<!DOCTYPE svg PUBLIC "-//W3C//DTD SVG 1.1//EN" "http://www.w3.org/Graphics/SVG/1.1/DTD/svg11.dtd">
<svg version="1.1" id="Layer_1" xmlns="http://www.w3.org/2000/svg" xmlns:xlink="http://www.w3.org/1999/xlink" x="0px" y="0px"
	 width="16px" height="16px" viewBox="0 0 16 16" enable-background="new 0 0 16 16" xml:space="preserve">
<g opacity="0">
	<rect x="0.38281" y="0.40967" fill="#000040" width="15.23438" height="15.18018"/>
	<path fill="#0D1842" d="M15.36719,0.65967v14.68018H0.63281V0.65967H15.36719 M15.86719,0.15967h-0.5H0.63281h-0.5v0.5v14.68018
		v0.5h0.5h14.73438h0.5v-0.5V0.65967V0.15967L15.86719,0.15967z"/>
</g>
<g>
	<g>
		<rect x="6.55713" y="2.05176" fill="#61E4FF" width="2.88623" height="1.0918"/>
		<path fill="#0D1842" d="M9.19336,2.30176v0.5918H6.80713v-0.5918H9.19336 M9.69336,1.80176h-0.5H6.80713h-0.5v0.5v0.5918v0.5h0.5
			h2.38623h0.5v-0.5v-0.5918V1.80176L9.69336,1.80176z"/>
	</g>
	<g>
		<rect x="0.38281" y="3.5957" fill="#61E4FF" width="2.88574" height="1.0918"/>
		<path fill="#0D1842" d="M3.01855,3.8457v0.5918H0.63281V3.8457H3.01855 M3.51855,3.3457h-0.5H0.63281h-0.5v0.5v0.5918v0.5h0.5
			h2.38574h0.5v-0.5V3.8457V3.3457L3.51855,3.3457z"/>
	</g>
	<g>
		<rect x="6.55713" y="3.5957" fill="#4267FF" width="2.88623" height="1.0918"/>
		<path fill="#0D1842" d="M9.19336,3.8457v0.5918H6.80713V3.8457H9.19336 M9.69336,3.3457h-0.5H6.80713h-0.5v0.5v0.5918v0.5h0.5
			h2.38623h0.5v-0.5V3.8457V3.3457L9.69336,3.3457z"/>
	</g>
	<g>
		<rect x="0.38281" y="5.13965" fill="#4267FF" width="2.88574" height="1.0918"/>
		<path fill="#0D1842" d="M3.01855,5.38965v0.5918H0.63281v-0.5918H3.01855 M3.51855,4.88965h-0.5H0.63281h-0.5v0.5v0.5918v0.5h0.5
			h2.38574h0.5v-0.5v-0.5918V4.88965L3.51855,4.88965z"/>
	</g>
	<g>
		<rect x="6.55713" y="5.13965" fill="#4267FF" width="2.88623" height="1.0918"/>
		<path fill="#0D1842" d="M9.19336,5.38965v0.5918H6.80713v-0.5918H9.19336 M9.69336,4.88965h-0.5H6.80713h-0.5v0.5v0.5918v0.5h0.5
			h2.38623h0.5v-0.5v-0.5918V4.88965L9.69336,4.88965z"/>
	</g>
	<g>
		<rect x="0.38281" y="6.68262" fill="#4267FF" width="2.88574" height="1.0918"/>
		<path fill="#0D1842" d="M3.01855,6.93262v0.5918H0.63281v-0.5918H3.01855 M3.51855,6.43262h-0.5H0.63281h-0.5v0.5v0.5918v0.5h0.5
			h2.38574h0.5v-0.5v-0.5918V6.43262L3.51855,6.43262z"/>
	</g>
	<g>
		<rect x="3.46973" y="6.68262" fill="#61E4FF" width="2.88623" height="1.0918"/>
		<path fill="#0D1842" d="M6.10596,6.93262v0.5918H3.71973v-0.5918H6.10596 M6.60596,6.43262h-0.5H3.71973h-0.5v0.5v0.5918v0.5h0.5
			h2.38623h0.5v-0.5v-0.5918V6.43262L6.60596,6.43262z"/>
	</g>
	<g>
		<rect x="6.55713" y="6.68262" fill="#4267FF" width="2.88623" height="1.0918"/>
		<path fill="#0D1842" d="M9.19336,6.93262v0.5918H6.80713v-0.5918H9.19336 M9.69336,6.43262h-0.5H6.80713h-0.5v0.5v0.5918v0.5h0.5
			h2.38623h0.5v-0.5v-0.5918V6.43262L9.69336,6.43262z"/>
	</g>
	<g>
		<rect x="12.73145" y="6.68262" fill="#61E4FF" width="2.88574" height="1.0918"/>
		<path fill="#0D1842" d="M15.36719,6.93262v0.5918h-2.38574v-0.5918H15.36719 M15.86719,6.43262h-0.5h-2.38574h-0.5v0.5v0.5918v0.5
			h0.5h2.38574h0.5v-0.5v-0.5918V6.43262L15.86719,6.43262z"/>
	</g>
	<g>
		<rect x="0.38281" y="8.22754" fill="#4267FF" width="2.88574" height="1.08984"/>
		<path fill="#0D1842" d="M3.01855,8.47754v0.58984H0.63281V8.47754H3.01855 M3.51855,7.97754h-0.5H0.63281h-0.5v0.5v0.58984v0.5
			h0.5h2.38574h0.5v-0.5V8.47754V7.97754L3.51855,7.97754z"/>
	</g>
	<g>
		<rect x="3.46973" y="8.22754" fill="#4267FF" width="2.88623" height="1.08984"/>
		<path fill="#0D1842" d="M6.10596,8.47754v0.58984H3.71973V8.47754H6.10596 M6.60596,7.97754h-0.5H3.71973h-0.5v0.5v0.58984v0.5
			h0.5h2.38623h0.5v-0.5V8.47754V7.97754L6.60596,7.97754z"/>
	</g>
	<g>
		<rect x="6.55713" y="8.22754" fill="#4267FF" width="2.88623" height="1.08984"/>
		<path fill="#0D1842" d="M9.19336,8.47754v0.58984H6.80713V8.47754H9.19336 M9.69336,7.97754h-0.5H6.80713h-0.5v0.5v0.58984v0.5
			h0.5h2.38623h0.5v-0.5V8.47754V7.97754L9.69336,7.97754z"/>
	</g>
	<g>
		<rect x="12.73145" y="8.22754" fill="#4267FF" width="2.88574" height="1.08984"/>
		<path fill="#0D1842" d="M15.36719,8.47754v0.58984h-2.38574V8.47754H15.36719 M15.86719,7.97754h-0.5h-2.38574h-0.5v0.5v0.58984
			v0.5h0.5h2.38574h0.5v-0.5V8.47754V7.97754L15.86719,7.97754z"/>
	</g>
	<g>
		<rect x="0.38281" y="9.77051" fill="#4267FF" width="2.88574" height="1.0918"/>
		<path fill="#0D1842" d="M3.01855,10.02051v0.5918H0.63281v-0.5918H3.01855 M3.51855,9.52051h-0.5H0.63281h-0.5v0.5v0.5918v0.5h0.5
			h2.38574h0.5v-0.5v-0.5918V9.52051L3.51855,9.52051z"/>
	</g>
	<g>
		<rect x="3.46973" y="9.77051" fill="#4267FF" width="2.88623" height="1.0918"/>
		<path fill="#0D1842" d="M6.10596,10.02051v0.5918H3.71973v-0.5918H6.10596 M6.60596,9.52051h-0.5H3.71973h-0.5v0.5v0.5918v0.5h0.5
			h2.38623h0.5v-0.5v-0.5918V9.52051L6.60596,9.52051z"/>
	</g>
	<g>
		<rect x="6.55713" y="9.77051" fill="#4267FF" width="2.88623" height="1.0918"/>
		<path fill="#0D1842" d="M9.19336,10.02051v0.5918H6.80713v-0.5918H9.19336 M9.69336,9.52051h-0.5H6.80713h-0.5v0.5v0.5918v0.5h0.5
			h2.38623h0.5v-0.5v-0.5918V9.52051L9.69336,9.52051z"/>
	</g>
	<g>
		<rect x="12.73145" y="9.77051" fill="#4267FF" width="2.88574" height="1.0918"/>
		<path fill="#0D1842" d="M15.36719,10.02051v0.5918h-2.38574v-0.5918H15.36719 M15.86719,9.52051h-0.5h-2.38574h-0.5v0.5v0.5918
			v0.5h0.5h2.38574h0.5v-0.5v-0.5918V9.52051L15.86719,9.52051z"/>
	</g>
	<g>
		<rect x="0.38281" y="11.31445" fill="#4267FF" width="2.88574" height="1.09082"/>
		<path fill="#0D1842" d="M3.01855,11.56445v0.59082H0.63281v-0.59082H3.01855 M3.51855,11.06445h-0.5H0.63281h-0.5v0.5v0.59082v0.5
			h0.5h2.38574h0.5v-0.5v-0.59082V11.06445L3.51855,11.06445z"/>
	</g>
	<g>
		<rect x="3.46973" y="11.31445" fill="#4267FF" width="2.88623" height="1.09082"/>
		<path fill="#0D1842" d="M6.10596,11.56445v0.59082H3.71973v-0.59082H6.10596 M6.60596,11.06445h-0.5H3.71973h-0.5v0.5v0.59082v0.5
			h0.5h2.38623h0.5v-0.5v-0.59082V11.06445L6.60596,11.06445z"/>
	</g>
	<g>
		<rect x="6.55713" y="11.31445" fill="#4267FF" width="2.88623" height="1.09082"/>
		<path fill="#0D1842" d="M9.19336,11.56445v0.59082H6.80713v-0.59082H9.19336 M9.69336,11.06445h-0.5H6.80713h-0.5v0.5v0.59082v0.5
			h0.5h2.38623h0.5v-0.5v-0.59082V11.06445L9.69336,11.06445z"/>
	</g>
	<g>
		<rect x="9.64453" y="11.31445" fill="#61E4FF" width="2.88574" height="1.09082"/>
		<path fill="#0D1842" d="M12.28027,11.56445v0.59082H9.89453v-0.59082H12.28027 M12.78027,11.06445h-0.5H9.89453h-0.5v0.5v0.59082
			v0.5h0.5h2.38574h0.5v-0.5v-0.59082V11.06445L12.78027,11.06445z"/>
	</g>
	<g>
		<rect x="12.73145" y="11.31445" fill="#4267FF" width="2.88574" height="1.09082"/>
		<path fill="#0D1842" d="M15.36719,11.56445v0.59082h-2.38574v-0.59082H15.36719 M15.86719,11.06445h-0.5h-2.38574h-0.5v0.5
			v0.59082v0.5h0.5h2.38574h0.5v-0.5v-0.59082V11.06445L15.86719,11.06445z"/>
	</g>
	<g>
		<rect x="0.38281" y="12.8584" fill="#4267FF" width="2.88574" height="1.08984"/>
		<path fill="#0D1842" d="M3.01855,13.1084v0.58984H0.63281V13.1084H3.01855 M3.51855,12.6084h-0.5H0.63281h-0.5v0.5v0.58984v0.5
			h0.5h2.38574h0.5v-0.5V13.1084V12.6084L3.51855,12.6084z"/>
	</g>
	<g>
		<rect x="3.46973" y="12.8584" fill="#4267FF" width="2.88623" height="1.08984"/>
		<path fill="#0D1842" d="M6.10596,13.1084v0.58984H3.71973V13.1084H6.10596 M6.60596,12.6084h-0.5H3.71973h-0.5v0.5v0.58984v0.5
			h0.5h2.38623h0.5v-0.5V13.1084V12.6084L6.60596,12.6084z"/>
	</g>
	<g>
		<rect x="6.55713" y="12.8584" fill="#4267FF" width="2.88623" height="1.08984"/>
		<path fill="#0D1842" d="M9.19336,13.1084v0.58984H6.80713V13.1084H9.19336 M9.69336,12.6084h-0.5H6.80713h-0.5v0.5v0.58984v0.5
			h0.5h2.38623h0.5v-0.5V13.1084V12.6084L9.69336,12.6084z"/>
	</g>
	<g>
		<rect x="9.64453" y="12.8584" fill="#4267FF" width="2.88574" height="1.08984"/>
		<path fill="#0D1842" d="M12.28027,13.1084v0.58984H9.89453V13.1084H12.28027 M12.78027,12.6084h-0.5H9.89453h-0.5v0.5v0.58984v0.5
			h0.5h2.38574h0.5v-0.5V13.1084V12.6084L12.78027,12.6084z"/>
	</g>
	<g>
		<rect x="12.73145" y="12.8584" fill="#4267FF" width="2.88574" height="1.08984"/>
		<path fill="#0D1842" d="M15.36719,13.1084v0.58984h-2.38574V13.1084H15.36719 M15.86719,12.6084h-0.5h-2.38574h-0.5v0.5v0.58984
			v0.5h0.5h2.38574h0.5v-0.5V13.1084V12.6084L15.86719,12.6084z"/>
	</g>
</g>
<g>
</g>
<g>
</g>
<g>
</g>
<g>
</g>
<g>
</g>
<g>
</g>
</svg>
